<svg width="46" height="57" viewBox="0 0 46 57" fill="none" xmlns="http://www.w3.org/2000/svg">
<path d="M44.9576 5.62697C39.3907 5.62697 31.5259 6.26131 27.5068 11.7319C25.7667 14.1016 24.8978 17.9648 25.1234 22.3373C25.1527 22.9148 25.4347 23.4069 25.8399 23.5891C26.243 23.7683 26.6859 23.6004 26.9616 23.1595C29.1968 19.5779 31.975 16.7075 35.2254 14.628C35.5011 14.4487 35.827 14.4345 36.1236 14.5767C36.3847 14.7048 36.5894 14.9465 36.6959 15.2567C36.9173 15.894 36.8463 16.7331 36.1111 17.2053C36.0692 17.2337 36.0316 17.2708 35.9899 17.2964C35.9753 17.305 35.9586 17.3022 35.9461 17.3107C27.9372 22.4371 23.9996 31.3811 22.2114 40.5782C20.9079 29.0625 18.1548 22.2833 15.5541 18.1215C13.672 14.7988 11.8211 13.0378 10.7517 12.0422C10.5532 11.8572 9.95375 11.2997 9.70513 10.9611C9.2978 10.4064 9.2978 9.50451 9.70513 8.94978C10.1125 8.39784 10.7767 8.39784 11.23 9.01232C11.3408 9.14607 11.5183 9.31676 11.7439 9.52158L11.9298 9.69227C13.4422 11.1032 16.2581 13.7233 18.7564 19.3645C18.9799 19.8681 19.4123 20.1384 19.8322 20.0302C20.2583 19.9278 20.5925 19.4812 20.6762 18.9037C21.2214 15.1116 20.977 9.48451 18.4933 6.10209C14.4742 0.634346 6.60946 2.09237e-08 1.04459 2.09237e-08C0.46795 -0.000133329 0 0.637146 0 1.42231C0 9.00365 0.465796 19.7143 4.48278 25.1878C6.15806 27.4693 8.74211 28.4934 11.3093 28.4934C13.4045 28.4934 15.4579 27.7793 17.0309 26.5418C19.1761 32.5955 20.8891 41.6392 20.8891 55.4734C20.8891 56.2586 21.3571 56.8959 21.9336 56.8959C22.5102 56.8959 22.9781 56.2586 22.9781 55.4734C22.9781 47.7555 23.9494 38.4928 27.5612 30.8688C29.0088 32.7947 31.5009 34.0152 34.2624 34.1289C34.4002 34.1346 34.536 34.1374 34.6718 34.1374C37.4772 34.1374 39.9567 32.9398 41.5171 30.8118C45.5361 25.3385 45.9999 14.6278 45.9999 7.04634C46.0021 6.26131 45.5362 5.62697 44.9576 5.62697Z" fill="#00B307"/>
</svg>
