<svg width="24" height="28" viewBox="0 0 24 28" fill="none" xmlns="http://www.w3.org/2000/svg">
<path fill-rule="evenodd" clip-rule="evenodd" d="M16.8576 15.6573C16.4079 15.4473 15.9032 15.6092 15.5427 15.9865C14.5754 16.9989 13.3608 17.7332 12 17.7332C10.6392 17.7332 9.42462 16.9989 8.45732 15.9865C8.09676 15.6092 7.59209 15.4473 7.14241 15.6573C5.46573 16.4406 4 17.4682 4 18.6666C4 21.4666 6.4 25.1999 12 25.1999C17.6 25.1999 20 21.4666 20 18.6666C20 17.4682 18.5343 16.4406 16.8576 15.6573Z" fill="#00B207"/>
<path d="M16.8 8.51656C16.8 12.1248 14.4 15.8666 12 15.8666C9.59995 15.8666 7.19995 12.1248 7.19995 8.51656C7.19995 4.90831 9.34898 2.7999 12 2.7999C14.6509 2.7999 16.8 4.90831 16.8 8.51656Z" fill="#00B207"/>
</svg>
