<svg width="14" height="14" viewBox="0 0 14 14" fill="none" xmlns="http://www.w3.org/2000/svg">
<path fill-rule="evenodd" clip-rule="evenodd" d="M10 6C10 8.20914 8.20914 10 6 10C3.79086 10 2 8.20914 2 6C2 3.79086 3.79086 2 6 2C8.20914 2 10 3.79086 10 6ZM10.0747 11.4889C9.7294 11.1436 9.1889 11.1068 8.75528 11.3314C7.93019 11.7586 6.99328 12 6 12C2.68629 12 0 9.3137 0 6C0 2.68629 2.68629 0 6 0C9.3137 0 12 2.68629 12 6C12 6.99328 11.7586 7.93019 11.3314 8.75528C11.1068 9.1889 11.1436 9.7294 11.4889 10.0747L13.7071 12.2929C14.0976 12.6834 14.0976 13.3166 13.7071 13.7071C13.3166 14.0976 12.6834 14.0976 12.2929 13.7071L10.0747 11.4889Z" fill="#84D187"/>
</svg>
